<?xml version="1.0" encoding="UTF-8" standalone="no"?>
<!DOCTYPE svg PUBLIC "-//W3C//DTD SVG 1.1//EN" "http://www.w3.org/Graphics/SVG/1.1/DTD/svg11.dtd">
<svg width="100%" height="100%" viewBox="0 0 32 32" version="1.1" xmlns="http://www.w3.org/2000/svg" xmlns:xlink="http://www.w3.org/1999/xlink" xml:space="preserve" xmlns:serif="http://www.serif.com/" style="fill-rule:evenodd;clip-rule:evenodd;stroke-linejoin:round;stroke-miterlimit:2;">
    <g>
        <clipPath id="_clip1">
            <rect x="0" y="0" width="300" height="32"/>
        </clipPath>
        <g clip-path="url(#_clip1)">
            <path d="M36.67,31.483L36.67,0.633L51.172,0.633L51.172,5.25L41.869,5.25L41.869,13.2L48.834,13.2L48.834,17.817L41.869,17.817L41.869,31.483L36.67,31.483ZM54.18,31.483L54.18,0.633L59.379,0.633L59.379,26.867L67.553,26.867L67.553,31.483L54.18,31.483ZM75.614,31.483L70.578,31.483L76.153,0.633L82.61,0.633L88.185,31.483L83.15,31.483L82.234,24.65L76.53,24.65L75.614,31.483ZM77.297,20.033L81.482,20.033L79.422,6.783L79.341,6.783L77.297,20.033ZM93.499,5.25L88.463,5.25L88.463,0.633L103.717,0.633L103.717,5.25L98.681,5.25L98.681,31.483L93.482,31.483L93.482,5.25L93.499,5.25ZM107.657,31.483L107.657,0.633L112.856,0.633L112.856,31.483L107.657,31.483ZM123.94,31.483L118.741,31.483L118.741,0.633L126.033,0.633C131.853,0.633 134.828,3.15 134.828,9.733C134.828,14.683 132.948,16.7 131.183,17.517L135.58,31.483L130.3,31.483L126.605,18.717C125.935,18.8 124.839,18.85 123.924,18.85L123.924,31.483L123.94,31.483ZM123.94,14.483L125.788,14.483C128.6,14.483 129.646,13.417 129.646,9.733C129.646,6.05 128.583,5 125.788,5L123.94,5L123.94,14.483ZM138.687,8.116C138.687,3.766 141.204,0.216 146.649,0.216C152.093,0.216 154.61,3.766 154.61,8.116L154.61,24C154.61,28.35 152.093,31.9 146.649,31.9C141.204,31.9 138.687,28.35 138.687,24L138.687,8.116ZM143.886,23.883C143.886,26.183 144.556,27.3 146.649,27.3C148.741,27.3 149.412,26.183 149.412,23.883L149.412,8.25C149.412,5.95 148.741,4.833 146.649,4.833C144.556,4.833 143.886,5.95 143.886,8.25L143.886,23.883ZM159.319,31.483L159.319,0.633L164.142,0.633L170.469,18.283L170.551,18.283L170.551,0.633L175.243,0.633L175.243,31.483L170.714,31.483L164.093,12.217L164.011,12.217L164.011,31.483L159.319,31.483ZM197.362,8.25C197.15,5.6 195.777,4.833 194.6,4.833C192.916,4.833 192,5.95 192,7.866C192,13.116 202.561,15.65 202.561,24.016C202.561,29.1 199.21,31.916 194.354,31.916C189.531,31.916 186.769,27.983 186.556,23.366L191.493,22.633C191.706,25.75 192.916,27.283 194.6,27.283C196.398,27.283 197.624,26.3 197.624,24.466C197.624,18.35 187.063,16.733 187.063,7.883C187.063,2.966 189.989,0.2 195.106,0.2C199.341,0.2 201.858,3.316 202.316,7.683L197.362,8.25ZM216.638,8.55C216.638,5.95 215.461,4.833 214.12,4.833C212.027,4.833 211.357,5.95 211.357,8.25L211.357,23.883C211.357,26.183 212.027,27.3 214.12,27.3C216,27.3 216.638,26.183 216.638,24.183L216.638,20.466L221.837,20.466L221.837,24C221.837,28.35 219.319,31.9 214.12,31.9C208.676,31.9 206.158,28.35 206.158,24L206.158,8.116C206.158,3.766 208.676,0.216 214.12,0.216C219.319,0.216 221.837,4.066 221.837,8.683L221.837,10.95L216.638,10.95L216.638,8.55ZM225.793,31.483L225.793,0.633L230.992,0.633L230.992,13.2L236.518,13.2L236.518,0.633L241.717,0.633L241.717,31.483L236.518,31.483L236.518,17.817L230.992,17.817L230.992,31.483L225.793,31.483ZM246.392,8.116C246.392,3.766 248.91,0.216 254.354,0.216C259.798,0.216 262.316,3.766 262.316,8.116L262.316,24C262.316,28.35 259.798,31.9 254.354,31.9C248.91,31.9 246.392,28.35 246.392,24L246.392,8.116ZM251.591,23.883C251.591,26.183 252.262,27.3 254.354,27.3C256.447,27.3 257.117,26.183 257.117,23.883L257.117,8.25C257.117,5.95 256.447,4.833 254.354,4.833C252.262,4.833 251.591,5.95 251.591,8.25L251.591,23.883ZM266.501,8.116C266.501,3.766 269.019,0.216 274.463,0.216C279.907,0.216 282.425,3.766 282.425,8.116L282.425,24C282.425,28.35 279.907,31.9 274.463,31.9C269.019,31.9 266.501,28.35 266.501,24L266.501,8.116ZM271.7,23.883C271.7,26.183 272.371,27.3 274.463,27.3C276.556,27.3 277.226,26.183 277.226,23.883L277.226,8.25C277.226,5.95 276.556,4.833 274.463,4.833C272.371,4.833 271.7,5.95 271.7,8.25L271.7,23.883ZM286.692,31.483L286.692,0.633L291.891,0.633L291.891,26.867L300.065,26.867L300.065,31.483L286.692,31.483ZM2.452,31.916L7.765,31.916L17.003,0.216L11.689,0.216L2.452,31.916ZM13.079,31.916L18.392,31.916L27.63,0.216L22.317,0.216L13.08,31.916L13.079,31.916Z" style="fill:white;fill-rule:nonzero;"/>
        </g>
    </g>
</svg>
