<?xml version="1.0" encoding="UTF-8"?>
<svg width="500px" height="560px" viewBox="0 0 500 560" version="1.1" xmlns="http://www.w3.org/2000/svg" xmlns:xlink="http://www.w3.org/1999/xlink">
    <title>Shape</title>
    <g id="Page-1" stroke="none" stroke-width="1" fill="none" fill-rule="evenodd">
        <path d="M28.2260475,119.328521 L221.773953,7.56615381 C239.011691,-2.38931173 260.192938,-2.5203047 277.534453,7.1731749 L278.226047,7.56615381 L471.75901,119.328521 C489.018638,129.296628 499.742541,147.611223 500,167.510241 L500,168.230161 L500,391.769839 C500,411.691287 489.481568,430.138966 472.379999,440.307557 L471.75901,440.671479 L278.226047,552.433846 C260.988309,562.389312 239.807062,562.520305 222.465547,552.826825 L221.773953,552.433846 L28.2260475,440.671479 C10.9664196,430.703372 0.257104939,412.374185 0,392.489238 L0,391.769839 L0,168.230161 C0,148.293946 10.5038429,129.860682 27.6050648,119.692436 L28.2260475,119.328521 L221.773953,7.56615381 L28.2260475,119.328521 Z M249.995517,93.9331456 L88.902337,186.968815 L88.902337,373.025207 L249.995517,466.060876 L249.995517,280.004484 L411.10364,186.968815 L249.995517,93.9331456 Z" id="Shape" fill="#000000"></path>
    </g>
</svg>